<svg width="16" height="17" viewBox="0 0 16 17" fill="none" xmlns="http://www.w3.org/2000/svg">
<path d="M8.00179 4.50125C5.73162 4.50125 3.9005 6.27171 3.9005 8.46668C3.9005 10.6616 5.73162 12.4321 8.00179 12.4321C10.2719 12.4321 12.1031 10.6616 12.1031 8.46668C12.1031 6.27171 10.2719 4.50125 8.00179 4.50125ZM8.00179 11.0447C6.53475 11.0447 5.33542 9.88857 5.33542 8.46668C5.33542 7.04478 6.53118 5.88863 8.00179 5.88863C9.47239 5.88863 10.6682 7.04478 10.6682 8.46668C10.6682 9.88857 9.46882 11.0447 8.00179 11.0447ZM13.2274 4.33904C13.2274 4.85327 12.7991 5.26396 12.2708 5.26396C11.739 5.26396 11.3142 4.84982 11.3142 4.33904C11.3142 3.82826 11.7426 3.41412 12.2708 3.41412C12.7991 3.41412 13.2274 3.82826 13.2274 4.33904ZM15.9438 5.27777C15.8831 4.03879 15.5904 2.9413 14.6516 2.03709C13.7165 1.13287 12.5814 0.849876 11.2999 0.787755C9.97925 0.71528 6.02075 0.71528 4.70006 0.787755C3.4222 0.846425 2.28712 1.12942 1.34835 2.03364C0.409593 2.93785 0.120468 4.03533 0.0562186 5.27431C-0.0187395 6.55126 -0.0187395 10.3786 0.0562186 11.6556C0.116899 12.8946 0.409593 13.992 1.34835 14.8963C2.28712 15.8005 3.41863 16.0835 4.70006 16.1456C6.02075 16.2181 9.97925 16.2181 11.2999 16.1456C12.5814 16.0869 13.7165 15.8039 14.6516 14.8963C15.5868 13.992 15.8795 12.8946 15.9438 11.6556C16.0187 10.3786 16.0187 6.55471 15.9438 5.27777ZM14.2376 13.0257C13.9592 13.7021 13.4202 14.2233 12.717 14.4959C11.664 14.8997 9.16542 14.8065 8.00179 14.8065C6.83815 14.8065 4.33597 14.8963 3.28656 14.4959C2.58695 14.2267 2.04796 13.7056 1.76598 13.0257C1.34835 12.0076 1.44473 9.59177 1.44473 8.46668C1.44473 7.34158 1.35192 4.92229 1.76598 3.90764C2.04439 3.2312 2.58338 2.71007 3.28656 2.43743C4.33954 2.03364 6.83815 2.12682 8.00179 2.12682C9.16542 2.12682 11.6676 2.03709 12.717 2.43743C13.4166 2.70662 13.9556 3.22775 14.2376 3.90764C14.6552 4.92574 14.5588 7.34158 14.5588 8.46668C14.5588 9.59177 14.6552 12.0111 14.2376 13.0257Z" fill="white"/>
</svg>
