<svg width="19" height="16" viewBox="0 0 19 16" fill="none" xmlns="http://www.w3.org/2000/svg">
<path fill-rule="evenodd" clip-rule="evenodd" d="M8.90958 5.23722L8.86995 4.60731C8.75115 2.97477 9.79388 1.4836 11.4438 0.905186C12.051 0.699487 13.0805 0.673775 13.7537 0.853761C14.0177 0.930898 14.5193 1.18795 14.8756 1.41936L15.5224 1.84357L16.2352 1.62506C16.6312 1.50931 17.1592 1.31651 17.3967 1.18795C17.6211 1.07228 17.8191 1.00796 17.8191 1.04657C17.8191 1.26508 17.3307 2.01067 16.9216 2.42199C16.3672 3.00048 16.5256 3.0519 17.6475 2.66622C18.3207 2.4477 18.3338 2.4477 18.2019 2.69193C18.1226 2.82049 17.7135 3.27042 17.2779 3.68174C16.5387 4.38879 16.4992 4.46593 16.4992 5.05724C16.4992 5.96991 16.0504 7.8724 15.6016 8.91364C14.77 10.8675 12.9881 12.8857 11.2062 13.9012C8.69839 15.3281 5.35891 15.688 2.54748 14.8525C1.61034 14.5697 0 13.8498 0 13.7213C0 13.6827 0.488346 13.6313 1.08236 13.6185C2.32308 13.5928 3.5638 13.2585 4.61975 12.6672L5.33257 12.2559L4.51415 11.9859C3.35261 11.6002 2.30987 10.7133 2.04593 9.87774C1.96667 9.60779 1.99309 9.5949 2.73225 9.5949L3.49783 9.58208L2.85105 9.28643C2.08547 8.91364 1.38594 8.28372 1.04274 7.64099C0.79192 7.17824 0.475215 6.00844 0.5676 5.91849C0.59394 5.87996 0.871175 5.95702 1.18796 6.05987C2.09868 6.38124 2.21749 6.3041 1.68951 5.76421C0.699535 4.7873 0.39596 3.33466 0.871175 1.95924L1.09557 1.34222L1.96667 2.17776C3.74865 3.86173 5.84733 4.86443 8.24959 5.16009L8.90958 5.23722Z" fill="white"/>
</svg>
